name D:\school\WTK\thesis\model\3dpredictsim\Results\batch_windlass\Pog_s1_tmt_aCst_d05_k1000_WL30_ig24_pas.mot
datacolumns 128
datarows 4
range 1.63260228 1.66525432
endheader
time	pelvis_tilt	pelvis_list	pelvis_rotation	pelvis_tx	pelvis_ty	pelvis_tz	hip_flexion_l	hip_adduction_l	hip_rotation_l	hip_flexion_r	hip_adduction_r	hip_rotation_r	knee_angle_l	knee_angle_r	ankle_angle_l	ankle_angle_r	subtalar_angle_l	subtalar_angle_r	tmt_angle_l	tmt_angle_r	mtp_angle_l	mtp_angle_r	lumbar_extension	lumbar_bending	lumbar_rotation	arm_flex_l	arm_add_l	arm_rot_l	arm_flex_r	arm_add_r	arm_rot_r	elbow_flex_l	elbow_flex_r	pro_sup_l	pro_sup_r	glut_med1_l/activation	glut_med2_l/activation	glut_med3_l/activation	glut_min1_l/activation	glut_min2_l/activation	glut_min3_l/activation	semimem_l/activation	semiten_l/activation	bifemlh_l/activation	bifemsh_l/activation	sar_l/activation	add_long_l/activation	add_brev_l/activation	add_mag1_l/activation	add_mag2_l/activation	add_mag3_l/activation	tfl_l/activation	pect_l/activation	grac_l/activation	glut_max1_l/activation	glut_max2_l/activation	glut_max3_l/activation	iliacus_l/activation	psoas_l/activation	quad_fem_l/activation	gem_l/activation	peri_l/activation	rect_fem_l/activation	vas_med_l/activation	vas_int_l/activation	vas_lat_l/activation	med_gas_l/activation	lat_gas_l/activation	soleus_l/activation	tib_post_l/activation	flex_dig_l/activation	flex_hal_l/activation	tib_ant_l/activation	per_brev_l/activation	per_long_l/activation	per_tert_l/activation	ext_dig_l/activation	ext_hal_l/activation	ercspn_l/activation	intobl_l/activation	extobl_l/activation	glut_med1_r/activation	glut_med2_r/activation	glut_med3_r/activation	glut_min1_r/activation	glut_min2_r/activation	glut_min3_r/activation	semimem_r/activation	semiten_r/activation	bifemlh_r/activation	bifemsh_r/activation	sar_r/activation	add_long_r/activation	add_brev_r/activation	add_mag1_r/activation	add_mag2_r/activation	add_mag3_r/activation	tfl_r/activation	pect_r/activation	grac_r/activation	glut_max1_r/activation	glut_max2_r/activation	glut_max3_r/activation	iliacus_r/activation	psoas_r/activation	quad_fem_r/activation	gem_r/activation	peri_r/activation	rect_fem_r/activation	vas_med_r/activation	vas_int_r/activation	vas_lat_r/activation	med_gas_r/activation	lat_gas_r/activation	soleus_r/activation	tib_post_r/activation	flex_dig_r/activation	flex_hal_r/activation	tib_ant_r/activation	per_brev_r/activation	per_long_r/activation	per_tert_r/activation	ext_dig_r/activation	ext_hal_r/activation	ercspn_r/activation	intobl_r/activation	extobl_r/activation	
          1.63260228	         -2.91883510	          1.52817266	         -6.25000358	          2.04075285	          0.85623682	          0.00247425	         31.99959584	          1.62860839	         -5.11001733	        -18.64683977	         -1.67268945	          7.17552050	        -18.71363223	         -8.92385310	          0.55255454	          0.45244592	          1.34565582	         12.29271920	          0.52674076	         -9.02241442	         -1.31732394	         29.45437736	         -0.91883561	          0.29668681	          2.08274109	         -9.02146112	        -13.56709748	         12.78985877	          6.90182322	        -13.47724136	         18.21179576	         13.66973050	         32.93189262	         86.51662706	         86.51662706	          0.05005836	          0.05000138	          0.06499504	          0.05000125	          0.05000151	          0.05000452	          0.05907061	          0.05000539	          0.19773451	          0.05000030	          0.05000098	          0.10113398	          0.13741514	          0.18852612	          0.17026370	          0.12384071	          0.05000300	          0.05903285	          0.05898233	          0.05006196	          0.12447979	          0.12784343	          0.05907069	          0.06880252	          0.22902582	          0.05000582	          0.05519512	          0.06259271	          0.14507632	          0.14461167	          0.12348890	          0.05907007	          0.05907012	          0.05907000	          0.05000032	          0.05000265	          0.05094115	          0.53202863	          0.25747835	          0.15285549	          0.33693567	          0.61577654	          0.26096262	          0.05000041	          0.11108296	          0.12077331	          0.24370839	          0.08244449	          0.05000026	          0.27902986	          0.17699595	          0.08244548	          0.05000743	          0.05000072	          0.05000049	          0.06703138	          0.08118780	          0.18258891	          0.07001742	          0.05001709	          0.05001543	          0.05000548	          0.31279781	          0.06461065	          0.05000223	          0.05000950	          0.05000609	          0.05000575	          0.31068367	          0.57787414	          0.05000072	          0.05000114	          0.05000026	          0.24487900	          0.14635439	          0.07983949	          0.07510201	          0.27584023	          0.34989829	          0.21624520	          0.20788449	          0.18918443	          0.26048018	          0.05000003	          0.11761281	          0.17270248	          0.05000029	          0.05000007	          0.05000026	          0.05000004	          0.05399070	          0.05000024	
          1.64348629	         -2.90651232	          1.62006430	         -6.50290022	          2.05767315	          0.85514936	          0.00228709	         31.36714762	          2.03127899	         -4.87611324	        -18.41262566	         -1.98141099	          6.98736902	        -18.65104004	        -10.96987383	          0.50537675	         -0.62564338	          0.70613943	         13.17940162	          0.44072360	         -9.49494073	         -1.01060660	         30.29679958	         -0.68599417	          0.03867992	          2.15112196	        -10.16909911	        -13.56398836	         12.61711863	          6.59848864	        -13.51155036	         18.38339395	         13.65220124	         34.04707693	         86.51662706	         86.51662706	          0.05000052	          0.05000797	          0.12332988	          0.05000059	          0.05000120	          0.05000180	          0.05000069	          0.05000228	          0.16737356	          0.05000567	          0.05000629	          0.08560545	          0.11631572	          0.32943348	          0.25293682	          0.12754375	          0.05000067	          0.05000261	          0.05000312	          0.05907014	          0.14460580	          0.14323336	          0.05000074	          0.05823835	          0.44939888	          0.07676052	          0.06975272	          0.05907326	          0.20679144	          0.20494249	          0.17737392	          0.05000006	          0.05000011	          0.05000000	          0.05000012	          0.05010961	          0.05000058	          0.60661654	          0.21794380	          0.13029425	          0.53227621	          0.63064741	          0.25309448	          0.05000003	          0.09402655	          0.10222896	          0.20628793	          0.06978547	          0.05000081	          0.23618612	          0.14981895	          0.06978638	          0.05001014	          0.05000089	          0.05000112	          0.05673912	          0.06872243	          0.25084719	          0.19314774	          0.09929729	          0.05002708	          0.05000378	          0.27986018	          0.08629656	          0.05001061	          0.05000351	          0.05000224	          0.05000207	          0.26297938	          0.52823030	          0.05000059	          0.05004478	          0.05907008	          0.21265967	          0.12389180	          0.16358973	          0.15886872	          0.23348585	          0.29617254	          0.18304144	          0.17596460	          0.16013614	          0.22048451	          0.05010399	          0.09955395	          0.14618480	          0.05000053	          0.08999401	          0.05000159	          0.05844783	          0.06978529	          0.05337156	
          1.65437031	         -2.89002095	          1.72246331	         -6.72757697	          2.07478902	          0.85391814	          0.00211931	         30.61221728	          2.38890056	         -4.55839498	        -18.09486617	         -2.28386925	          6.78398726	        -19.17437598	        -13.17068013	          0.40601483	         -1.78303160	          0.00835441	         13.99770703	          0.15698098	         -9.80611803	         -0.62008306	         30.60411260	         -0.44023947	         -0.23840227	          2.20625048	        -11.30429783	        -13.57062575	         12.51802518	          6.21890634	        -13.55175564	         18.47485690	         13.62957978	         35.17174775	         86.51662706	         86.51662706	          0.29460255	          0.30251249	          0.42550157	          0.10057681	          0.05000126	          0.39902640	          0.08464745	          0.05000091	          0.15119837	          0.05000021	          0.05000115	          0.07710615	          0.24753689	          0.27885063	          0.21906283	          0.16887616	          0.05000074	          0.06978397	          0.13003580	          0.05000039	          0.19003385	          0.16214664	          0.05907006	          0.05519377	          0.38039522	          0.06497448	          0.25953332	          0.05000285	          0.20918298	          0.22124827	          0.19042896	          0.05907003	          0.05907005	          0.05907002	          0.05000017	          0.05000054	          0.05000468	          0.52086631	          0.18447939	          0.11028807	          0.45054730	          0.58335619	          0.21423287	          0.05311851	          0.08250251	          0.08653204	          0.22427968	          0.05907021	          0.05000032	          0.19992104	          0.12681490	          0.05907103	          0.06119011	          0.05000120	          0.05000144	          0.05000022	          0.05817089	          0.23195107	          0.31781777	          0.08408994	          0.05911807	          0.09754897	          0.31036647	          0.07304899	          0.05002997	          0.05005294	          0.05007577	          0.05904727	          0.22259994	          0.49224316	          0.05004289	          0.05000181	          0.05000026	          0.18000652	          0.10486975	          0.13847146	          0.13447529	          0.19763484	          0.25069621	          0.15493602	          0.14894590	          0.13554805	          0.18663004	          0.13889623	          0.17331270	          0.17138296	          0.05006212	          0.20150814	          0.09746717	          0.08240609	          0.05907001	          0.05000032	
          1.66525432	         -2.87218939	          1.82986562	         -6.91913110	          2.09185650	          0.85263823	          0.00194364	         29.74185475	          2.72769907	         -4.22243002	        -17.64514823	         -2.56997156	          6.57679598	        -19.72484224	        -15.59559833	          0.50871127	         -2.93873120	         -0.71163543	         14.73288638	         -0.20714118	         -9.77141211	         -0.15845977	         29.94349936	         -0.20249207	         -0.52422249	          2.24930007	        -12.37052963	        -13.58155395	         12.51153582	          5.80520337	        -13.59549156	         18.50285574	         13.57000387	         36.27124957	         86.51662706	         86.51662706	          0.38603925	          0.47202210	          0.56546149	          0.22739777	          0.39681640	          0.37909683	          0.07165043	          0.10743442	          0.12798241	          0.06826150	          0.05000174	          0.06526681	          0.20952845	          0.23603437	          0.18542811	          0.17663565	          0.05000070	          0.05906939	          0.11007025	          0.29734702	          0.25460729	          0.18657768	          0.05000019	          0.05000015	          0.32198696	          0.06971969	          0.21968482	          0.05000007	          0.28145969	          0.30233857	          0.25878353	          0.05000005	          0.05000011	          0.05000001	          0.08740788	          0.05396514	          0.05000117	          0.66837344	          0.15615323	          0.09335374	          0.46225307	          0.59868839	          0.40292297	          0.06674645	          0.06983464	          0.07324533	          0.18984245	          0.05000032	          0.05000007	          0.18281844	          0.10734315	          0.05000115	          0.08568896	          0.05000069	          0.05000056	          0.05000083	          0.05896019	          0.24102079	          0.26901812	          0.07117853	          0.05004146	          0.08257155	          0.34075853	          0.06183325	          0.05000081	          0.05000143	          0.05000092	          0.05000066	          0.18842075	          0.46128137	          0.05000009	          0.05000053	          0.05000036	          0.15824317	          0.08876756	          0.11720981	          0.11382724	          0.16728865	          0.21220264	          0.13114609	          0.12608435	          0.11473574	          0.15797453	          0.16124783	          0.14670135	          0.14506779	          0.12086143	          0.20357778	          0.08250255	          0.11472044	          0.05000003	          0.05000010	
